<svg id="Layer_3" height="512" viewBox="0 0 64 64" width="512" xmlns="http://www.w3.org/2000/svg" data-name="Layer 3"><path d="m62.848 23.47-5-8a1 1 0 0 0 -.848-.47h-12v-2h3a3 3 0 0 0 3-3v-6a3 3 0 0 0 -3-3h-32a3 3 0 0 0 -3 3v6a3 3 0 0 0 3 3h3v2h-12a1 1 0 0 0 -.848.47l-5 8a1 1 0 0 0 -.152.53v3a6 6 0 0 0 3 5.188v22.812h-2a1 1 0 0 0 -1 1v6a1 1 0 0 0 1 1h60a1 1 0 0 0 1-1v-6a1 1 0 0 0 -1-1h-2v-22.812a6 6 0 0 0 3-5.188v-3a1 1 0 0 0 -.152-.53zm-2.648-.47h-7.5l-2.25-6h6zm-17.42 0-1.5-6h7.027l2.25 6zm-3.56-6 1.5 6h-7.72v-6zm-8.22 6h-7.72l1.5-6h6.22zm-9.78 0h-7.777l2.25-6h7.027zm-8.22 2h8v2a4 4 0 0 1 -8 0zm10 0h8v2a4 4 0 0 1 -8 0zm10 0h8v2a4 4 0 0 1 -8 0zm10 0h8v2a4 4 0 0 1 -8 0zm-28-15v-6a1 1 0 0 1 1-1h32a1 1 0 0 1 1 1v6a1 1 0 0 1 -1 1h-32a1 1 0 0 1 -1-1zm6 3h22v2h-22zm-13.445 4h6l-2.25 6h-7.5zm-4.555 8h8v2a4 4 0 0 1 -8 0zm58 36h-58v-4h58zm-35-6h-6v-17.92a7.006 7.006 0 0 1 6 6.92zm-8 0h-6v-11a7.006 7.006 0 0 1 6-6.92zm40 0h-30v-11a9 9 0 0 0 -18 0v11h-4v-22.09a5.936 5.936 0 0 0 6-2.6 5.992 5.992 0 0 0 10 0 5.992 5.992 0 0 0 10 0 5.992 5.992 0 0 0 10 0 5.992 5.992 0 0 0 10 0 5.936 5.936 0 0 0 6 2.6zm-1-24a4 4 0 0 1 -4-4v-2h8v2a4 4 0 0 1 -4 4z"/><path d="m55 35h-24a1 1 0 0 0 -1 1v16a1 1 0 0 0 1 1h24a1 1 0 0 0 1-1v-16a1 1 0 0 0 -1-1zm-1 16h-22v-14h22z"/><path d="m35 49h16a1 1 0 0 0 1-1v-8a1 1 0 0 0 -1-1h-16a1 1 0 0 0 -1 1v8a1 1 0 0 0 1 1zm1-8h14v6h-14z"/><path d="m14 45h2v4h-2z"/><path d="m22 45h2v4h-2z"/></svg>